:SAMPLES-PER-SECOND 30
:FRAME-RANGE 1-663
:FULLY-SPECIFIED
:DEGREES
146
root  34.3951 39.4365 102.838 0.312537 -54.4789 0.78048
RightUpLeg  3.29071 -7.80207 -8.92342
RightLeg  -4.2856 -11.4777 0.564643
RightFoot  2.70779 -1.22177 10.0421
RightToes  2.91037e-010 0 -3.6325e-017
Spine  0.522961 0.698903 0.690224
Spine1  4.79908 1.50483 -3.61763
HEad  28.477 -14.1447 -1.79753
LeftShoulder1  1.26192 0.177172 -31.4006
LeftArm  9.97747 6.70539 -29.4808
LeftForeArm  3.24145 -10.5599 -14.5327
LeftHand  0.435868 -1.62317 -6.97748
RightShoulder  10.2896 13.7534 52.1681
RightArm  11.5604 4.18659 18.052
RightForeArm  22.1052 -2.19003 17.3623
RightHand  0.394494 3.98853 4.43956
LeftUpLeg  -0.419753 5.55925 0.417991
LeftLeg  0.896711 -2.34849 -1.99447
LeftFoot  -0.13062 0.160504 -1.6278
LeftToes  -4.9116e-011 5.71383e-011 -3.31847e-011
147
root  34.386 39.4435 102.749 0.350477 -54.4088 0.678797
RightUpLeg  3.34434 -7.69663 -8.7345
RightLeg  -4.40277 -11.684 0.627487
RightFoot  2.7468 -1.21694 9.97746
RightToes  2.91037e-010 0 -3.6325e-017
Spine  0.542679 0.647183 0.793832
Spine1  4.87204 1.46892 -3.68641
HEad  28.2598 -14.0994 -1.6467
LeftShoulder1  1.26453 0.187527 -31.3888
LeftArm  9.84933 6.81628 -29.6022
LeftForeArm  3.19933 -10.4147 -14.6192
LeftHand  0.427743 -1.83016 -6.56477
RightShoulder  10.3491 13.8466 52.1865
RightArm  10.9977 4.11651 18.011
RightForeArm  22.6926 -2.42578 17.2975
RightHand  0.396522 4.05574 4.46503
LeftUpLeg  -0.47718 5.57827 0.577813
LeftLeg  0.929762 -2.38207 -1.91711
LeftFoot  -0.119969 0.183128 -1.85725
LeftToes  -4.9116e-011 5.71383e-011 -3.31847e-011
148
root  34.3858 39.45 102.646 0.409151 -54.3971 0.702537
RightUpLeg  3.07414 -7.64489 -8.58782
RightLeg  -4.2107 -11.8037 0.608792
RightFoot  2.68429 -1.18749 9.78087
RightToes  2.91037e-010 0 -3.6325e-017
Spine  0.615005 0.644973 0.733221
Spine1  4.67828 1.47716 -3.71729
HEad  28.2773 -14.172 -1.49272
LeftShoulder1  1.26657 0.183663 -31.2997
LeftArm  9.49431 6.81503 -29.4888
LeftForeArm  3.88914 -10.1286 -14.7273
LeftHand  0.431856 -1.72823 -6.91015
RightShoulder  10.3397 13.7803 52.3355
RightArm  11.2439 4.10767 18.0129
RightForeArm  22.2726 -2.30876 17.3359
RightHand  0.397932 3.95634 4.52127
LeftUpLeg  -0.615198 5.65929 0.755181
LeftLeg  0.841368 -2.58253 -2.00322
LeftFoot  -0.0361817 0.209036 -2.11031
LeftToes  -4.9116e-011 5.71383e-011 -3.31847e-011
149
root  34.3828 39.4586 102.562 0.279656 -54.3366 0.760249
RightUpLeg  3.02672 -7.65601 -8.53372
RightLeg  -4.04485 -11.7527 0.601973
RightFoot  2.5979 -1.13898 9.44265
RightToes  2.91037e-010 0 -3.6325e-017
Spine  0.691672 0.653074 0.684202
Spine1  4.68918 1.48253 -3.66361
HEad  28.2906 -14.3345 -1.28243
LeftShoulder1  1.26802 0.136684 -31.2228
LeftArm  9.20644 6.96606 -29.8093
LeftForeArm  3.76242 -10.0145 -14.7881
LeftHand  0.411872 -1.753 -6.55885
RightShoulder  10.3331 13.7747 52.3195
RightArm  11.3444 4.08921 18.081
RightForeArm  22.231 -2.25505 17.3378
RightHand  0.394027 4.01066 4.59117
LeftUpLeg  -0.525492 5.59751 0.763192
LeftLeg  0.661225 -2.54126 -1.8998
LeftFoot  0.24518 0.197842 -1.96513
LeftToes  -4.9116e-011 5.71383e-011 -3.31847e-011
150
root  34.385 39.4598 102.465 0.458198 -54.2914 0.585779
RightUpLeg  2.87662 -7.53068 -8.28882
RightLeg  -3.98244 -11.9931 0.64833
RightFoot  2.57945 -1.12421 9.33397
RightToes  2.91037e-010 0 -3.6325e-017
Spine  0.68243 0.625806 0.659955
Spine1  4.67693 1.42283 -3.53014
HEad  28.2986 -14.4858 -1.15449
LeftShoulder1  1.26885 0.193398 -31.4888
LeftArm  9.92444 6.83772 -29.5362
LeftForeArm  2.92267 -10.1379 -14.8049
LeftHand  0.435493 -1.83981 -6.85098
RightShoulder  10.3722 13.8607 52.2584
RightArm  12.371 4.02287 18.1971
RightForeArm  21.2848 -1.7824 17.4304
RightHand  0.375604 4.02077 4.35879
LeftUpLeg  -0.780236 5.67607 1.00891
LeftLeg  0.894098 -2.71112 -1.88828
LeftFoot  0.0553134 0.244545 -2.4547
LeftToes  -4.9116e-011 5.71383e-011 -3.31847e-011
151
root  34.387 39.4589 102.384 0.357914 -54.2373 0.603598
RightUpLeg  2.81036 -7.59394 -8.25305
RightLeg  -3.76472 -11.9688 0.699292
RightFoot  2.44091 -1.104 9.25422
RightToes  2.91037e-010 0 -3.6325e-017
Spine  0.793476 0.611535 0.739248
Spine1  4.58715 1.4484 -3.69404
HEad  28.4294 -14.4795 -1.01316
LeftShoulder1  1.26903 0.17688 -31.3363
LeftArm  9.5114 6.95838 -29.6601
LeftForeArm  3.54566 -10.0785 -14.7767
LeftHand  0.456327 -1.6575 -7.38974
RightShoulder  10.3468 13.764 52.4188
RightArm  12.0639 4.09389 18.2307
RightForeArm  21.7157 -1.74326 17.3721
RightHand  0.39037 4.03788 4.53108
LeftUpLeg  -0.750602 5.69605 1.05862
LeftLeg  0.853115 -2.77485 -1.87844
LeftFoot  0.356449 0.210608 -2.07751
LeftToes  -4.9116e-011 5.71383e-011 -3.31847e-011
